<svg width="24" height="24" viewBox="0 0 24 24" fill="none" xmlns="http://www.w3.org/2000/svg">
<g clip-path="url(#clip0_70_596)">
<g opacity="0.01">
<rect x="1.75" y="5.75" width="21.5" height="13.5" stroke="#E7E7E7" stroke-width="0.5"/>
<path d="M19.25 1.75V23.25H5.75L5.75 1.75L19.25 1.75Z" stroke="#E7E7E7" stroke-width="0.5"/>
<path d="M21.75 3.25V21.75H3.25V3.25L21.75 3.25Z" stroke="#E7E7E7" stroke-width="0.5"/>
<circle cx="12.5" cy="12.5" r="10.75" stroke="#E7E7E7" stroke-width="0.5"/>
<circle cx="12.5" cy="12.5" r="6.25" stroke="#E7E7E7" stroke-width="0.5"/>
<path d="M2.5 22.9282L23.0011 2" stroke="#E7E7E7" stroke-width="0.5"/>
<path d="M22.5011 22.9282L2 2" stroke="#E7E7E7" stroke-width="0.5"/>
</g>
<rect opacity="0.01" width="24" height="24" fill="#D8D8D8"/>
<path d="M8.40142 4.39862C8.66991 4.6671 8.69228 5.0885 8.46855 5.38247L8.40142 5.45928L1.86064 12L8.40142 18.5408C8.66991 18.8092 8.69228 19.2306 8.46855 19.5246L8.40142 19.6014C8.13294 19.8699 7.71154 19.8923 7.41757 19.6685L7.34076 19.6014L0.269696 12.5303C0.00121053 12.2619 -0.0211632 11.8405 0.202575 11.5465L0.269696 11.4697L7.34076 4.39862C7.63366 4.10572 8.10853 4.10572 8.40142 4.39862Z" fill="#242424"/>
</g>
<defs>
<clipPath id="clip0_70_596">
<rect width="24" height="24" fill="white"/>
</clipPath>
</defs>
</svg>
