<svg width="40" height="40" viewBox="0 0 40 40" fill="none" xmlns="http://www.w3.org/2000/svg">
<mask id="mask0_220_4302" style="mask-type:alpha" maskUnits="userSpaceOnUse" x="0" y="0" width="40" height="40">
<rect width="40" height="40" fill="#D9D9D9"/>
</mask>
<g mask="url(#mask0_220_4302)">
<g filter="url(#filter0_d_220_4302)">
<mask id="mask1_220_4302" style="mask-type:alpha" maskUnits="userSpaceOnUse" x="2" y="2" width="36" height="35">
<path d="M16.682 4.39341C18.3456 2.19061 21.6544 2.19061 23.318 4.39342L27.0132 9.28615C27.5107 9.94492 28.1931 10.4407 28.9733 10.7103L34.7685 12.7126C37.3776 13.6141 38.4 16.761 36.8191 19.0239L33.3077 24.0502C32.8349 24.7269 32.5743 25.5291 32.559 26.3544L32.4455 32.4847C32.3943 35.2447 29.7174 37.1896 27.0767 36.3853L21.2114 34.599C20.4217 34.3584 19.5783 34.3584 18.7886 34.599L12.9232 36.3853C10.2826 37.1896 7.60567 35.2447 7.55454 32.4847L7.44098 26.3544C7.42569 25.5291 7.16505 24.7269 6.69227 24.0502L3.18087 19.0239C1.59996 16.761 2.62245 13.6141 5.23154 12.7126L11.0267 10.7103C11.8069 10.4407 12.4893 9.94492 12.9868 9.28615L16.682 4.39341Z" fill="#738600"/>
</mask>
<g mask="url(#mask1_220_4302)">
<g filter="url(#filter1_i_220_4302)">
<path d="M16.6825 3.66979C18.3461 1.46698 21.6549 1.46698 23.3186 3.66979L27.2819 8.91758C27.7794 9.57634 28.4617 10.0721 29.242 10.3417L35.4577 12.4894C38.0667 13.3909 39.0892 16.5378 37.5083 18.8007L33.7421 24.1917C33.2693 24.8684 33.0087 25.6705 32.9934 26.4959L32.8716 33.071C32.8205 35.831 30.1436 37.7759 27.5029 36.9717L21.2119 35.0557C20.4222 34.8152 19.5788 34.8152 18.7891 35.0557L12.4981 36.9717C9.85744 37.7759 7.18053 35.831 7.12941 33.0711L7.0076 26.4959C6.99231 25.6705 6.73168 24.8684 6.2589 24.1917L2.49268 18.8007C0.911777 16.5378 1.93426 13.3909 4.54335 12.4894L10.759 10.3417C11.5393 10.0721 12.2216 9.57634 12.7192 8.91758L16.6825 3.66979Z" fill="#57D2B5"/>
</g>
<g filter="url(#filter2_f_220_4302)">
<path d="M16.8046 6.0106C18.467 4.01317 21.5339 4.01317 23.1963 6.0106L26.4571 9.92843C26.9686 10.5429 27.6463 10.9969 28.4091 11.2361L32.9095 12.6471C35.6687 13.5122 36.7243 16.8599 34.9602 19.1512L32.5497 22.2821C32.0076 22.9861 31.7054 23.8454 31.6873 24.7338L31.6018 28.9175C31.5465 31.6293 28.9515 33.5629 26.3371 32.8404L21.108 31.3953C20.3832 31.195 19.6177 31.195 18.8929 31.3953L13.6638 32.8404C11.0494 33.5629 8.45443 31.6293 8.39907 28.9175L8.31366 24.7338C8.29552 23.8454 7.99326 22.9861 7.45118 22.2821L5.04073 19.1512C3.27665 16.8599 4.33217 13.5122 7.09144 12.6471L11.5918 11.2361C12.3547 10.9969 13.0324 10.5429 13.5438 9.92843L16.8046 6.0106Z" fill="#56FFA3"/>
</g>
<g filter="url(#filter3_f_220_4302)">
<path d="M16.3487 6.42493C18.0132 4.27213 21.2629 4.27213 22.9274 6.42493L24.6345 8.63262C25.1358 9.28104 25.8177 9.76681 26.5943 10.0289L29.1281 10.8841C31.7736 11.7769 32.8048 14.9717 31.1805 17.2427L29.7173 19.2884C29.2282 19.9721 28.9579 20.788 28.942 21.6285L28.8929 24.2152C28.8408 26.9631 26.1845 28.9054 23.5501 28.1217L20.8236 27.3107C20.05 27.0805 19.2261 27.0805 18.4525 27.3107L15.726 28.1217C13.0917 28.9054 10.4353 26.9631 10.3832 24.2152L10.3341 21.6285C10.3182 20.788 10.0479 19.9721 9.55885 19.2884L8.09565 17.2427C6.47131 14.9717 7.50248 11.7769 10.148 10.8841L12.6819 10.0289C13.4585 9.76681 14.1403 9.28104 14.6416 8.63262L16.3487 6.42493Z" fill="#7EFFA5"/>
</g>
<g filter="url(#filter4_f_220_4302)">
<path d="M16.4799 8.4521C18.1126 5.87587 21.8879 5.87587 23.5206 8.4521C23.9808 9.17819 24.6563 9.74644 25.4512 10.0737L26.4392 10.4805C28.7755 11.4425 29.7209 14.2486 28.4431 16.4283L27.3968 18.213C27.034 18.8318 26.8375 19.534 26.8263 20.2513L26.8016 21.8446C26.7584 24.6224 23.9911 26.5301 21.3796 25.5823C20.4885 25.2589 19.512 25.2589 18.6209 25.5823C16.0094 26.5301 13.2421 24.6224 13.1989 21.8446L13.1742 20.2513C13.163 19.534 12.9665 18.8318 12.6037 18.213L11.5574 16.4283C10.2796 14.2486 11.225 11.4425 13.5613 10.4805L14.5493 10.0737C15.3442 9.74644 16.0197 9.17819 16.4799 8.4521Z" fill="#FAFF1D"/>
</g>
<g opacity="0.4" filter="url(#filter5_f_220_4302)">
<path d="M18.341 2.19671C19.1728 1.09531 20.8272 1.09531 21.659 2.19671L25.4507 7.21725C25.6995 7.54663 26.0406 7.79451 26.4308 7.92931L32.3773 9.98398C33.6818 10.4347 34.1931 12.0082 33.4026 13.1396L29.7995 18.2972C29.5631 18.6355 29.4328 19.0366 29.4251 19.4493L29.3086 25.7397C29.283 27.1197 27.9446 28.0921 26.6242 27.69L20.6057 25.857C20.2109 25.7367 19.7891 25.7367 19.3943 25.857L13.3758 27.69C12.0554 28.0921 10.717 27.1197 10.6914 25.7397L10.5749 19.4493C10.5672 19.0366 10.4369 18.6355 10.2005 18.2972L6.59739 13.1396C5.80694 12.0082 6.31818 10.4347 7.62272 9.98398L13.5692 7.92931C13.9594 7.79451 14.3005 7.54663 14.5493 7.21725L18.341 2.19671Z" fill="url(#paint0_radial_220_4302)"/>
</g>
<g filter="url(#filter6_f_220_4302)">
<path d="M19.1317 6.33319C19.462 5.89586 20.1189 5.89586 20.4492 6.33319L24.3825 11.5413C24.4813 11.6721 24.6168 11.7705 24.7717 11.824L30.9404 13.9555C31.4584 14.1344 31.6614 14.7592 31.3475 15.2085L27.6098 20.5587C27.5159 20.693 27.4642 20.8523 27.4611 21.0162L27.3402 27.5416C27.3301 28.0895 26.7986 28.4757 26.2744 28.316L20.031 26.4145C19.8742 26.3667 19.7067 26.3667 19.55 26.4145L13.3066 28.316C12.7823 28.4757 12.2508 28.0895 12.2407 27.5416L12.1198 21.0162C12.1168 20.8523 12.065 20.693 11.9712 20.5587L8.23343 15.2085C7.91957 14.7592 8.12257 14.1344 8.64057 13.9555L14.8092 11.824C14.9641 11.7705 15.0996 11.6721 15.1984 11.5413L19.1317 6.33319Z" fill="url(#paint1_radial_220_4302)"/>
</g>
<path opacity="0.6" d="M34.6976 18.0609C34.8027 19.2865 34.5741 20.6521 33.675 21.6667C32.5119 22.7327 31.139 22.7196 30.4995 23.3578C30.3944 22.1322 30.1167 21.268 30.9311 20.2403C31.7456 19.2127 33.6788 18.8663 34.6976 18.0609Z" fill="white"/>
<path opacity="0.6" d="M28.9382 27.6981C28.9937 28.3459 28.8729 29.0678 28.3976 29.6041C27.7828 30.1676 27.0571 30.1607 26.719 30.498C26.6635 29.8502 26.5167 29.3933 26.9472 28.8501C27.3777 28.3069 28.3997 28.1239 28.9382 27.6981Z" fill="white"/>
<g opacity="0.9" filter="url(#filter7_f_220_4302)">
<path d="M9.22283 11.7607C9.27837 12.4086 9.15755 13.1304 8.68231 13.6668C8.06747 14.2303 7.34176 14.2233 7.00371 14.5607C6.94817 13.9128 6.80137 13.456 7.23189 12.9128C7.66241 12.3696 8.68432 12.1865 9.22283 11.7607Z" fill="white"/>
</g>
</g>
</g>
</g>
<defs>
<filter id="filter0_d_220_4302" x="-0.570557" y="-0.258698" width="41.1411" height="39.827" filterUnits="userSpaceOnUse" color-interpolation-filters="sRGB">
<feFlood flood-opacity="0" result="BackgroundImageFix"/>
<feColorMatrix in="SourceAlpha" type="matrix" values="0 0 0 0 0 0 0 0 0 0 0 0 0 0 0 0 0 0 127 0" result="hardAlpha"/>
<feOffset/>
<feGaussianBlur stdDeviation="1.5"/>
<feComposite in2="hardAlpha" operator="out"/>
<feColorMatrix type="matrix" values="0 0 0 0 0.747919 0 0 0 0 0.908333 0 0 0 0 0.688819 0 0 0 1 0"/>
<feBlend mode="normal" in2="BackgroundImageFix" result="effect1_dropShadow_220_4302"/>
<feBlend mode="normal" in="SourceGraphic" in2="effect1_dropShadow_220_4302" result="shape"/>
</filter>
<filter id="filter1_i_220_4302" x="1.74146" y="-0.0613306" width="36.5183" height="37.216" filterUnits="userSpaceOnUse" color-interpolation-filters="sRGB">
<feFlood flood-opacity="0" result="BackgroundImageFix"/>
<feBlend mode="normal" in="SourceGraphic" in2="BackgroundImageFix" result="shape"/>
<feColorMatrix in="SourceAlpha" type="matrix" values="0 0 0 0 0 0 0 0 0 0 0 0 0 0 0 0 0 0 127 0" result="hardAlpha"/>
<feOffset dy="-2.079"/>
<feGaussianBlur stdDeviation="6.09"/>
<feComposite in2="hardAlpha" operator="arithmetic" k2="-1" k3="1"/>
<feColorMatrix type="matrix" values="0 0 0 0 0.0973958 0 0 0 0 0.779167 0 0 0 0 0.370104 0 0 0 1 0"/>
<feBlend mode="normal" in2="shape" result="effect1_innerShadow_220_4302"/>
</filter>
<filter id="filter2_f_220_4302" x="-10.378" y="-10.0405" width="60.7566" height="57.5864" filterUnits="userSpaceOnUse" color-interpolation-filters="sRGB">
<feFlood flood-opacity="0" result="BackgroundImageFix"/>
<feBlend mode="normal" in="SourceGraphic" in2="BackgroundImageFix" result="shape"/>
<feGaussianBlur stdDeviation="7.2765" result="effect1_foregroundBlur_220_4302"/>
</filter>
<filter id="filter3_f_220_4302" x="-0.998374" y="-3.50567" width="41.2729" height="40.1186" filterUnits="userSpaceOnUse" color-interpolation-filters="sRGB">
<feFlood flood-opacity="0" result="BackgroundImageFix"/>
<feBlend mode="normal" in="SourceGraphic" in2="BackgroundImageFix" result="shape"/>
<feGaussianBlur stdDeviation="4.158" result="effect1_foregroundBlur_220_4302"/>
</filter>
<filter id="filter4_f_220_4302" x="-7.72589" y="-12.1911" width="55.4523" height="56.7303" filterUnits="userSpaceOnUse" color-interpolation-filters="sRGB">
<feFlood flood-opacity="0" result="BackgroundImageFix"/>
<feBlend mode="normal" in="SourceGraphic" in2="BackgroundImageFix" result="shape"/>
<feGaussianBlur stdDeviation="9.3555" result="effect1_foregroundBlur_220_4302"/>
</filter>
<filter id="filter5_f_220_4302" x="4.12168" y="-0.729334" width="31.7566" height="30.6109" filterUnits="userSpaceOnUse" color-interpolation-filters="sRGB">
<feFlood flood-opacity="0" result="BackgroundImageFix"/>
<feBlend mode="normal" in="SourceGraphic" in2="BackgroundImageFix" result="shape"/>
<feGaussianBlur stdDeviation="1.05" result="effect1_foregroundBlur_220_4302"/>
</filter>
<filter id="filter6_f_220_4302" x="6.40423" y="4.32519" width="26.7724" height="25.7071" filterUnits="userSpaceOnUse" color-interpolation-filters="sRGB">
<feFlood flood-opacity="0" result="BackgroundImageFix"/>
<feBlend mode="normal" in="SourceGraphic" in2="BackgroundImageFix" result="shape"/>
<feGaussianBlur stdDeviation="0.84" result="effect1_foregroundBlur_220_4302"/>
</filter>
<filter id="filter7_f_220_4302" x="6.09408" y="10.9207" width="3.98127" height="4.47996" filterUnits="userSpaceOnUse" color-interpolation-filters="sRGB">
<feFlood flood-opacity="0" result="BackgroundImageFix"/>
<feBlend mode="normal" in="SourceGraphic" in2="BackgroundImageFix" result="shape"/>
<feGaussianBlur stdDeviation="0.42" result="effect1_foregroundBlur_220_4302"/>
</filter>
<radialGradient id="paint0_radial_220_4302" cx="0" cy="0" r="1" gradientUnits="userSpaceOnUse" gradientTransform="translate(16.3654 5.25) rotate(90.3683) scale(28.5574 39.0368)">
<stop stop-color="white"/>
<stop offset="0.500578" stop-color="white" stop-opacity="0.3"/>
<stop offset="1" stop-color="white" stop-opacity="0"/>
</radialGradient>
<radialGradient id="paint1_radial_220_4302" cx="0" cy="0" r="1" gradientUnits="userSpaceOnUse" gradientTransform="translate(16.8343 9.73094) rotate(90.3683) scale(23.2267 31.7499)">
<stop stop-color="white"/>
<stop offset="0.500578" stop-color="white" stop-opacity="0.3"/>
<stop offset="1" stop-color="white" stop-opacity="0"/>
</radialGradient>
</defs>
</svg>
